<svg t="1660228787485" class="icon" viewBox="0 0 1024 1024" version="1.1" xmlns="http://www.w3.org/2000/svg" p-id="2482" width="200" height="200"><path d="M336.457143 336.457143m-336.457143 0a336.457143 336.457143 0 1 0 672.914286 0 336.457143 336.457143 0 1 0-672.914286 0Z" fill="#8CF6FB" p-id="2483"></path><path d="M512 1024C229.668571 1024 0 794.331429 0 512S229.668571 0 512 0s512 229.668571 512 512-229.668571 512-512 512z m0-950.857143C269.165714 73.142857 73.142857 269.165714 73.142857 512s196.022857 438.857143 438.857143 438.857143 438.857143-196.022857 438.857143-438.857143S754.834286 73.142857 512 73.142857z" fill="#3C2DCB" p-id="2484"></path><path d="M535.405714 605.622857l-190.171428 109.714286c-17.554286 10.24-39.497143 4.388571-49.737143-13.165714-10.24-17.554286-4.388571-39.497143 13.165714-49.737143L482.742857 551.497143V343.771429c0-20.48 16.091429-36.571429 36.571429-36.571429s36.571429 16.091429 36.571428 36.571429v219.428571c0 4.388571-1.462857 8.777143-2.925714 13.165714 0 11.702857-7.314286 23.405714-17.554286 29.257143z" fill="#D098FF" p-id="2485"></path></svg>